# xmcd
#
# Track frame offsets:
#	150
#	19367
#	39738
#	56893
#	75483
#	102739
#	115804
#	134058
#	153204
#	169269
#	186191
#	207265
#	223504
#	240860
#	259814
#	278894
#	294597
#	314224
#
# Disc length: 4471 seconds
#
# Revision: 2
# Processed by: cddbd v1.5.2PL0 Copyright (c) Steve Scherf et al.
# Submitted via: EZCDAudioConverter 2.0.7.1
#
DISCID=17117512
DTITLE=Michel sardou - Anthologie [CD3)
DYEAR=2004
DGENRE=Chanson
TTITLE0=Etre une Femme
TTITLE1=Victoria
TTITLE2=La Génération Loving You
TTITLE3=Musica
TTITLE4=Les lacs du Connemara
TTITLE5=L'autre femme
TTITLE6=Je viens du Sud
TTITLE7=Il Etait Là (Le Fauteuil)
TTITLE8=Les années 30
TTITLE9=La Première Fois Qu'on S'Aimera
TTITLE10=Vladimir Illitch
TTITLE11=A l'Italienne
TTITLE12=Les Deux Écoles
TTITLE13=Délire d'amour
TTITLE14=Rouge
TTITLE15=Parce que c'était lui, parce que c'était moi
TTITLE16=1965
TTITLE17=Chanteur de jazz
EXTD=
EXTT0=
EXTT1=
EXTT2=
EXTT3=
EXTT4=
EXTT5=
EXTT6=
EXTT7=
EXTT8=
EXTT9=
EXTT10=
EXTT11=
EXTT12=
EXTT13=
EXTT14=
EXTT15=
EXTT16=
EXTT17=
PLAYORDER=
